<svg width="26" height="26" viewBox="0 0 26 26" fill="none" xmlns="http://www.w3.org/2000/svg">
<g clip-path="url(#clip0_2571_12923)" filter="url(#filter0_d_2571_12923)">
<path d="M8.58211 1.70261L10.6243 4.00012H4.59717C3.6195 4.00012 2.78512 4.70695 2.62439 5.67132L2.36069 7.25352C2.30989 7.55829 2.54491 7.83572 2.85388 7.83572H3.86768C4.1121 7.83572 4.32069 7.65902 4.36087 7.41792L4.56236 6.20902C4.58245 6.08848 4.68675 6.00012 4.80896 6.00012H21.1911C21.3133 6.00012 21.4176 6.08848 21.4377 6.20902L21.6392 7.41792C21.6794 7.65902 21.888 7.83572 22.1324 7.83572H23.1462C23.4552 7.83572 23.6902 7.55829 23.6394 7.25352L23.3757 5.67132C23.215 4.70695 22.3806 4.00012 21.4029 4.00012H15.3703L17.4126 1.70261C17.596 1.49621 17.5774 1.18018 17.371 0.996719L16.6236 0.332356C16.4172 0.148896 16.1012 0.167487 15.9177 0.373878L12.9973 3.65934L10.0769 0.373878C9.89347 0.167487 9.57743 0.148896 9.37104 0.332355L8.62363 0.996719C8.41724 1.18018 8.39865 1.49621 8.58211 1.70261Z" fill="white"/>
<path d="M20.4505 9.85012C20.1744 9.85012 19.9505 10.074 19.9505 10.3501V17.3501C19.9505 17.6263 20.1744 17.8501 20.4505 17.8501H24.15C24.4261 17.8501 24.65 17.6263 24.65 17.3501V16.3501C24.65 16.074 24.4261 15.8501 24.15 15.8501H21.9725V14.8501H24.15C24.4261 14.8501 24.65 14.6263 24.65 14.3501V13.3501C24.65 13.074 24.4261 12.8501 24.15 12.8501H21.9725V11.8501H24.15C24.4261 11.8501 24.65 11.6263 24.65 11.3501V10.3501C24.65 10.074 24.4261 9.85012 24.15 9.85012H20.4505Z" fill="white"/>
<path d="M2 9.85012C1.72386 9.85012 1.5 10.074 1.5 10.3501V17.3501C1.5 17.6263 1.72386 17.8501 2 17.8501H5.8022C6.07834 17.8501 6.3022 17.6263 6.3022 17.3501V16.3501C6.3022 16.074 6.07834 15.8501 5.8022 15.8501H3.52198V10.3501C3.52198 10.074 3.29812 9.85012 3.02198 9.85012H2Z" fill="white"/>
<path d="M7.56593 17.3501C7.56593 17.6263 7.78979 17.8501 8.06593 17.8501H9.08791C9.36405 17.8501 9.58791 17.6263 9.58791 17.3501V10.3501C9.58791 10.074 9.36405 9.85012 9.08791 9.85012H8.06593C7.78979 9.85012 7.56593 10.074 7.56593 10.3501V17.3501Z" fill="white"/>
<path d="M14.9867 15.8626H14.7402L13.0993 10.2107C13.0373 9.99709 12.8416 9.85012 12.6192 9.85012H11.5908C11.2577 9.85012 11.0178 10.1697 11.1106 10.4895L13.1429 17.4895C13.2049 17.7032 13.4006 17.8501 13.6231 17.8501H16.1038C16.3263 17.8501 16.522 17.7032 16.584 17.4895L18.6162 10.4895C18.7091 10.1697 18.4691 9.85012 18.1361 9.85012H17.1077C16.8853 9.85012 16.6896 9.99709 16.6276 10.2107L14.9867 15.8626Z" fill="white"/>
<path d="M23.3759 21.9145C23.2151 22.8789 22.3807 23.5857 21.4031 23.5857L4.59733 23.5857C3.61965 23.5857 2.78527 22.8789 2.62454 21.9145L2.36084 20.3323C2.31004 20.0276 2.54507 19.7501 2.85404 19.7501H3.86783C4.11225 19.7501 4.32084 19.9268 4.36103 20.1679L4.56251 21.3768C4.5826 21.4974 4.6869 21.5857 4.80911 21.5857L21.1913 21.5857C21.3135 21.5857 21.4178 21.4974 21.4379 21.3768L21.6394 20.1679C21.6796 19.9268 21.8881 19.7501 22.1326 19.7501H23.1464C23.4553 19.7501 23.6904 20.0276 23.6396 20.3323L23.3759 21.9145Z" fill="white"/>
</g>
<defs>
<filter id="filter0_d_2571_12923" x="0" y="0" width="26" height="26" filterUnits="userSpaceOnUse" color-interpolation-filters="sRGB">
<feFlood flood-opacity="0" result="BackgroundImageFix"/>
<feColorMatrix in="SourceAlpha" type="matrix" values="0 0 0 0 0 0 0 0 0 0 0 0 0 0 0 0 0 0 127 0" result="hardAlpha"/>
<feOffset dy="1"/>
<feGaussianBlur stdDeviation="0.5"/>
<feColorMatrix type="matrix" values="0 0 0 0 0 0 0 0 0 0 0 0 0 0 0 0 0 0 0.12 0"/>
<feBlend mode="normal" in2="BackgroundImageFix" result="effect1_dropShadow_2571_12923"/>
<feBlend mode="normal" in="SourceGraphic" in2="effect1_dropShadow_2571_12923" result="shape"/>
</filter>
<clipPath id="clip0_2571_12923">
<rect width="24" height="24" fill="white" transform="translate(1)"/>
</clipPath>
</defs>
</svg>
